/* XPM */
static char * grok_xpm[] = {
"22 32 241 2",
"  	c #0e100b",
". 	c #0e100e",
"X 	c #0e0f0d",
"o 	c #0d100d",
"O 	c #0f110c",
"+ 	c #191b18",
"@ 	c #1a1b16",
"# 	c #0e110c",
"$ 	c #0e100c",
"% 	c #0d100b",
"& 	c #0e0f0e",
"* 	c #0e110d",
"= 	c #10110d",
"- 	c #0e100d",
"; 	c #121412",
": 	c #262723",
"> 	c #363735",
", 	c #3a3b39",
"< 	c #414340",
"1 	c #434442",
"2 	c #414341",
"3 	c #444543",
"4 	c #323331",
"5 	c #131512",
"6 	c #0e100a",
"7 	c #0e1008",
"8 	c #0f1008",
"9 	c #0e1107",
"0 	c #0e0f0a",
"q 	c #0d0f0c",
"w 	c #2b2c29",
"e 	c #323432",
"r 	c #363935",
"t 	c #3a3c37",
"y 	c #3d3f3c",
"u 	c #3f403e",
"i 	c #424240",
"p 	c #454743",
"a 	c #464746",
"s 	c #454644",
"d 	c #222320",
"f 	c #0f100e",
"g 	c #0d1008",
"h 	c #0f110f",
"j 	c #0e110a",
"k 	c #151614",
"l 	c #292a27",
"z 	c #2e2e2c",
"x 	c #333432",
"c 	c #383935",
"v 	c #3a3a37",
"b 	c #3c3d3a",
"n 	c #3f3f3e",
"m 	c #474746",
"M 	c #51514f",
"N 	c #4d4e4c",
"B 	c #1e1f1c",
"V 	c #0f100d",
"C 	c #0f120e",
"Z 	c #10110e",
"A 	c #24251f",
"S 	c #2f302e",
"D 	c #333533",
"F 	c #363736",
"G 	c #373935",
"H 	c #3b3b39",
"J 	c #666764",
"K 	c #60605f",
"L 	c #4b4b49",
"P 	c #121410",
"I 	c #0f110a",
"U 	c #10120c",
"Y 	c #2d2d2c",
"T 	c #2f2f2d",
"R 	c #30312f",
"E 	c #343434",
"W 	c #363734",
"Q 	c #5e5f5b",
"! 	c #7a7b77",
"~ 	c #777874",
"^ 	c #565655",
"/ 	c #434342",
"( 	c #0e1010",
") 	c #10120e",
"_ 	c #262624",
"` 	c #2a2a29",
"' 	c #30302e",
"] 	c #343532",
"[ 	c #3b3b3a",
"{ 	c #41413f",
"} 	c #575855",
"| 	c #6c6d68",
" .	c #8c8c87",
"..	c #898a86",
"X.	c #646460",
"o.	c #41413e",
"O.	c #0f120d",
"+.	c #11120f",
"@.	c #0f1209",
"#.	c #151714",
"$.	c #696965",
"%.	c #a1a199",
"&.	c #9a9a95",
"*.	c #545451",
"=.	c #40413f",
"-.	c #3e3e3d",
";.	c #0f1110",
":.	c #85857f",
">.	c #b9b9a4",
",.	c #c1c1bc",
"<.	c #b4b4a3",
"1.	c #ababa4",
"2.	c #3c3c3a",
"3.	c #313330",
"4.	c white",
"5.	c #e7e7e5",
"6.	c #494a47",
"7.	c #3a3b3a",
"8.	c #121311",
"9.	c #2e2f2e",
"0.	c gray22",
"q.	c #595956",
"w.	c #9c9c95",
"e.	c #a6a69d",
"r.	c #3a3a39",
"t.	c #3a3b36",
"y.	c #0d1105",
"u.	c #121310",
"i.	c #2f312e",
"p.	c #373736",
"a.	c #878780",
"s.	c gray21",
"d.	c #11130f",
"f.	c #111211",
"g.	c #313130",
"h.	c #353533",
"j.	c #3e3e3c",
"k.	c #4c4d4b",
"l.	c #686865",
"z.	c #666662",
"x.	c #62625e",
"c.	c #4e4e4a",
"v.	c #414140",
"b.	c #363635",
"n.	c #323231",
"m.	c #111310",
"M.	c #292928",
"N.	c #333532",
"B.	c #535351",
"V.	c #3d3d3b",
"C.	c #20211f",
"Z.	c #11130c",
"A.	c #141513",
"S.	c gray25",
"D.	c #3a3a3a",
"F.	c #373837",
"G.	c #12120f",
"H.	c #10140f",
"J.	c #12140f",
"K.	c #3a3a38",
"L.	c #131412",
"P.	c #131410",
"I.	c #131312",
"U.	c #12130f",
"Y.	c #3b3c3a",
"T.	c #3d3e3c",
"R.	c #393936",
"E.	c #171915",
"W.	c #141510",
"Q.	c #3c3d3b",
"!.	c #3e403d",
"~.	c #3c3e3c",
"^.	c #343534",
"/.	c #13150f",
"(.	c #131411",
").	c #131311",
"_.	c #181917",
"`.	c #363634",
"'.	c #141612",
"].	c #131511",
"[.	c #141511",
"{.	c #353634",
"}.	c #3e3f3e",
"|.	c #303130",
" X	c #131310",
".X	c #404140",
"XX	c #151613",
"oX	c #414240",
"OX	c #141412",
"+X	c #141611",
"@X	c #131510",
"#X	c #141410",
"$X	c #121510",
"%X	c #171814",
"&X	c #2a2a1f",
"*X	c #64644b",
"=X	c #7e7e62",
"-X	c #d5d5ba",
";X	c #dbdbca",
":X	c #b9b988",
">X	c #141610",
",X	c #141512",
"<X	c #161712",
"1X	c #353526",
"2X	c #767656",
"3X	c #96967c",
"4X	c #adad7f",
"5X	c #1c1d18",
"6X	c #151712",
"7X	c #3b3b2a",
"8X	c #494a3d",
"9X	c #8d8d72",
"0X	c #141613",
"qX	c #131610",
"wX	c #141515",
"eX	c #121411",
"rX	c #29291c",
"tX	c #383828",
"yX	c #4f4f39",
"uX	c #151610",
"iX	c #151514",
"pX	c #161715",
"aX	c #a0a075",
"sX	c #171813",
"dX	c #161611",
"fX	c #131611",
"gX	c #131612",
"hX	c #131513",
"jX	c #57573f",
"kX	c #bebe98",
"lX	c #191b16",
"zX	c gray8",
"xX	c #444439",
"cX	c #151611",
"vX	c #141711",
"bX	c #151612",
"nX	c #15140f",
"mX	c #1a1916",
"MX	c #151513",
"NX	c #151512",
"BX	c #151511",
"    . X o     o   O + @ # $ % % &     * % % ",
"= =   -   $ ; : > , < 1 2 3 4 5 6 6 7 $ X X ",
"8 8 9 0 q + w e r t y u i p a s d - f g - - ",
"h h h j k l z x c v b n m M N m a B V * # # ",
"9 9 C Z A w S D F G H u M J K L s 1 P I V V ",
"U U h B : Y T R E W t 3 Q ! ~ ^ / / v * ( ( ",
"h h ) _ ` ' ] [ { i L } |  ...X.m n o.O.+.+.",
"@.@.#._ z H L Q $.$.| ! ..%.&.~ *.=.-.5 I I ",
";.;.d l x N | :. .%.>.,.<.<.1. .J s 2.3.* * ",
"+.+.` w > Q ! 1.4.5.5.5.5.4.,.&.| 6.7.H o o ",
"8.8.Y 9.0.q.! 4.w.%.e.e.e.e.,...$.m r.t.y.y.",
"u.u.R i.p.L X.q.:.:.a.a.a.:.q.$.*.o.s.G d.d.",
"f.f.g.x h.j.k.M l.z.X.X.x.Q c.c.v.0.b.n.m.m.",
"u.u.M.N.x F { B.} *.6.s 1 , V.H E 4 4 C.+.+.",
"Z.Z.A.W p.F S.^ / M S.D.F._ b.E n.R 9.G.H.H.",
"J.J.u.] 0.K.1 q.M k.n [ F ' b.] 4 9.l L.P.P.",
"I.I.U.: 0.Y.u k.} a 2 T.r r.R.h.4 Y E.W.P P ",
"P P L.U.' Q.Q.v.s n.!.~.r [ R.^.S d /.(.L.L.",
"P.P.).8._.r.Q.T.-.S Q.y `.-., h.` '.].[.; ; ",
"P P (.u.P C.2.~.Q.{.R.}.b.n v |.+ (.].W.P.P.",
"8.8. X XI.L.T Q.T.j.r.1 x .XF.C.P.P.P.(.L.L.",
"A.A.[.u. XP XXY.j.oXb.m {.i 4 I.P.OX+XW.@X@X",
"#X#X[.P. XP 8.C.y k.b *.F.=.+  X@X(.].@X$X$X",
"[.[.'.(. X].L.%X&X*X=X-X;X:XE. X[.A.>X>X[.[.",
"@X@X(.[.W.,X#X<X1X*X2X3X4X4X5XP.(.,XP.OX,X,X",
"5 5 A.W.].(.[.6X7X8X*X9X9X2X5XW.,X,X+X0XqXqX",
"wXwX,X@XA.eX].<XrXtX*X9X=XyX@ @X,X,XuXiX>X>X",
"@X@X,XW.(.[.].pX1X2XaX-X-XaXsX,X,XXX0XdXXXXX",
"fXfXgXhX[.,XwX<XjX=X3XkXkX:XlX,XhX[.#Xk iXiX",
"A.A.,X[.zXA.@Xk A rXtXxXyXjXE.[.,XcXvX#.bXbX",
"+X+X+XgXA.W.'.,XsXnX5XmXdX#.@XA.MXXX6XOXMXMX",
"A.A.[.W.W.,X5 [.[.bXNX].,XbXgXA.0X+X6X'.BXBX"};
