/* XPM */
static char *Grok[] = {
/* columns rows colors chars-per-pixel */
"86 73 214 2 ",
"   c #36361F",
".  c #1D212A",
"X  c #22252E",
"o  c #25282F",
"O  c #2F2F24",
"+  c #353525",
"@  c #232730",
"#  c #262932",
"$  c #2A2D35",
"%  c #2B2F38",
"&  c #2E313A",
"*  c #2F3237",
"=  c #31353E",
"-  c #373A38",
";  c #2D302E",
":  c #3E4138",
">  c #3F4029",
",  c #4E4E27",
"<  c #46472D",
"1  c #54542A",
"2  c #5C5C2E",
"3  c #464738",
"4  c #4F5035",
"5  c #5C5C32",
"6  c #5B5C3B",
"7  c #53553A",
"8  c #5F6038",
"9  c #636332",
"0  c #6C6C36",
"q  c #6C6C3B",
"w  c #64643E",
"e  c #73733A",
"r  c #7B7B3E",
"t  c #323640",
"y  c #353944",
"u  c #383D46",
"i  c #3A3E49",
"p  c #373D4A",
"a  c #3C414D",
"s  c #3C4046",
"d  c #3E4451",
"f  c #474A47",
"g  c #4E5146",
"h  c #575A49",
"j  c #414653",
"k  c #444956",
"l  c #464B59",
"z  c #484E5C",
"x  c #4B515E",
"c  c #4D5153",
"v  c #585A59",
"b  c #6A6B4A",
"n  c #656547",
"m  c #737343",
"M  c #7E7E41",
"N  c #74764D",
"B  c #66685B",
"V  c #6F7152",
"C  c #747554",
"Z  c #7C7C59",
"A  c #6E7041",
"S  c #464E61",
"D  c #4D5362",
"F  c #4C556A",
"G  c #465066",
"H  c #515765",
"J  c #555B6C",
"K  c #555B64",
"L  c #555D72",
"P  c #585F70",
"I  c #5C6375",
"U  c #5D6579",
"Y  c #5F687C",
"T  c #676966",
"R  c #747666",
"E  c #626A7D",
"W  c #616879",
"Q  c #777876",
"!  c #6C706B",
"~  c #BD5E35",
"^  c #B86F3C",
"/  c #C65236",
"(  c #CF5238",
")  c #B77743",
"_  c #7F8042",
"`  c #7E8050",
"'  c #848442",
"]  c #8B8C46",
"[  c #8E8E49",
"{  c #84854A",
"}  c #94944A",
"|  c #9B9B4D",
" . c #97984C",
".. c #8C8D5A",
"X. c #949452",
"o. c #9E9E51",
"O. c #969759",
"+. c #8F9053",
"@. c #AC994E",
"#. c #B6924B",
"$. c #B39B51",
"%. c #BF9053",
"&. c #B38E4A",
"*. c #9FA050",
"=. c #A3A352",
"-. c #AAA452",
";. c #AAAA55",
":. c #ADAD59",
">. c #A6A759",
",. c #B5A957",
"<. c #AFB059",
"1. c #B3B35B",
"2. c #BCBC5E",
"3. c #B7B85C",
"4. c #979962",
"5. c #8A8C76",
"6. c #969977",
"7. c #8F906E",
"8. c #9FA171",
"9. c #A8A967",
"0. c #B5B562",
"q. c #BCBC62",
"w. c #B5B66A",
"e. c #A7A878",
"r. c #B3B472",
"t. c #C99A52",
"y. c #CB924D",
"u. c #C4A957",
"i. c #C1B35A",
"p. c #C2BE60",
"a. c #BFC062",
"s. c #C3C362",
"d. c #CACA65",
"f. c #C3C36A",
"g. c #CBCB6B",
"h. c #C7C866",
"j. c #D1D16A",
"k. c #D9D96F",
"l. c #CCCC74",
"z. c #CBCC79",
"x. c #D7D778",
"c. c #CFD06D",
"v. c #E4E47C",
"b. c #656D81",
"n. c #686F83",
"m. c #6A7286",
"M. c #6D758A",
"N. c #6F788D",
"B. c #677084",
"V. c #70798E",
"C. c #787D83",
"Z. c #747D92",
"A. c #7C8186",
"S. c #778097",
"D. c #7A8296",
"F. c #7B849B",
"G. c #7E889F",
"H. c #7F89A0",
"J. c #858583",
"K. c #8B8C8B",
"L. c #848887",
"P. c #969887",
"I. c #83899B",
"U. c #949494",
"Y. c #959A95",
"T. c #9B9B9B",
"R. c #94999A",
"E. c #9EA285",
"W. c #A3A39B",
"Q. c #B2B38E",
"!. c #828CA4",
"~. c #888FA3",
"^. c #848DAA",
"/. c #8691AA",
"(. c #8994AD",
"). c #8B93A7",
"_. c #949BAA",
"`. c #949AA0",
"'. c #868EB3",
"]. c #888FB5",
"[. c #8991B6",
"{. c #8E99B2",
"}. c #8C94BC",
"|. c #919BB4",
" X c #929EB9",
".X c #96A1BC",
"XX c #9BA1A8",
"oX c #A4A4A4",
"OX c #AAAAAA",
"+X c #A9A9A4",
"@X c #B3B3B3",
"#X c #BCBCBC",
"$X c #AEB0A9",
"%X c #DDDD85",
"&X c #D8D887",
"*X c #C8CA86",
"=X c #E3E38B",
"-X c #E6E686",
";X c #E9E996",
":X c #F4F49C",
">X c #C9C9BE",
",X c #E9E9A1",
"<X c #F6F6A0",
"1X c #9CA7C4",
"2X c #A2AECA",
"3X c #C2C2C2",
"4X c #CCCCCB",
"5X c #CACAC5",
"6X c LightGray",
"7X c #D7D7C8",
"8X c #E7E7E6",
"9X c #FBFBFB",
"0X c #F5F5F5",
"qX c #EAEAD3",
/* pixels */
"}.}.[.}.}.[.}.}.}.}.}.}.}.}.}.}.1X}.}.}.}.}.}.}.}.}.}.2X}.2X}.}.}.}.}.}.}.}.}.}.}.}.}.}.}.}.}.}.}.}.}.}.}.}.}.}.}.}.}.}.}.}.}.}.}.'.}.[.}.'.[.}.'.[.'.[.}.'.'.}.'.'.'.'.'.'.",
"}.[.}.}.}.}.}.}.}.}.}.}.}.}.}.}.}.}.}.}.}.}.}.}.}.}.}.}.}.}.}.}.}.}.}.}.}.}.}.}.}.}.}.}.}.}.}.}.}.}.}.}.}.}.}.}.}.}.}.}.}.}.}.}.}.}.'.}.'.}.[.'.}.'.}.'.'.'.'.'.'.'.'.'.'.'.",
"[.}.[.}.].}.}.[.}.}.}.}.}.}.}.}.}.}.}.}.}.}.}.}.}.}.}.}.}.}.}.}.}.}.}.}.}.}.}.2X}.}.}.}.}.}.}.}.}.}.}.}.}.}.}.}.}.}.}.}.}.}.}.}.}.'.}.'.}.}.'.}.}.'.'.'.'.'.}.'.'.'.'.'.'.'.",
"}.}.[.}.}.}.}.}.}.[.}.}.}.}.}.}.}.}.}.}.}.}.2X}.}.}.}.}.}.}.}.}.}.}.2X}.}.}.}.}.}.2X}.}.2X}.}.}.}.}.}.}.}.}.}.}.}.}.}.}.}.}.}.}.}.}.'.}.}.'.}.'.'.}.'.}.}.'.'.'.'.'.'.'.'.'.",
"[.}.}.}.].}.}.}.}.}.}.}.}.}.}.}.}.}.}.}.}.}.}.}.2X}.}.2X}.}.2X}.}.}.}.}.}.}.}.2X}.}.}.}.}.}.}.}.}.}.}.}.}.}.}.}.}.].}.}.}.].}.}.}.}.'.}.'.}.}.'.}.'.'.'.}.'.'.'.'.'.'.'.'.'.",
"[.}.}.].}.}.}.}.}.}.}.}.}.}.}.}.1X}.}.}.1X}.}.}.}.}.}.}.}.}.}.}.}.}.}.}.}.}.}.}.}.}.}.}.}.}.}.}.}.}.}.2X}.}.}.}.}.}.}.}.}.}.}.].}.].}.'.}.}.'.}.}.'.}.'.}.'.'.'.'.'.'.'.'.'.",
"}.}.}.}.}.}.[.}.}.}.}.}.}.}.}.}.}.}.}.}.}.}.}.}.}.}.}.}.}.}.}.}.}.}.}.2X}.}.}.}.}.}.}.}.}.}.2X}.}.}.}.}.}.}.}.}.}.}.}.}.}.].}.}.}.}.}.'.'.}.].].'.}.'.'.'.}.'.}.'.'.'.'.'.'.",
"[.}.[.}.}.}.}.}.}.}.}.}.}..X}.}.}.}.}.}.}.}.}.1X}.}.}.}.}.}.}.}.}.}.}.}.}.}.}.}.}.2X}.}.}.}.}.}.}.}.}.}.}.}.}.}.}.}.}.}.}.}.}.].}.'.}.}.}.].}.'.}.'.'.}.'.'.'.'.'.'.'.'.'.'.",
"}.}.}.].}.[.}.}.}.}.}.}.}.}.}.}.}.}.}.}.}.}.}.}.}.1X}.}.}.}.}.}.}.2X}.}.}.2X}.}.}.}.}.}.}.}.}.}.}.}.}.}.}.}.}.}.}.}.}.}.}.}.}.}.}.}.'.}.[.}.'.}.'.}.'.'.}.].}.'.].].'.'.'.'.",
"].[.}.}.}.}.}.}.}.}.}.}.}.}.}.}.}.}.1X}.}.}.}.}.}.}.}.}.}.1X}.}.}.}.}.}.}.}.}.}.}.}.}.}.}.}.}.}.}.}.}.}.}.}.}.}.}.}.}.}.}.].}.].}.}.}.'.}.'.}.'.}.'.}.}.'.'.'.'.'.'.'.'.'.'.",
"}.[.}.}.[.}.}.}.}.}.}.}.}.}.}.}.}.}.}.}.}.}.}.}.}.}.}.}.}.}.}.}.}.}.}.}.}.}.}.}.}.}.2X}.}.}.}.}.}.}.}.}.}.}.}.}.}.].}.}.}.].}.}.}.'.}.}.[.}.].}.'.}.'.].'.}.].].].'.].'.'.'.",
"[.}.[.}.}.}.}.[.}.}.}.}.}.}.}.}.}.}.}.}.}.}.1X}.}.}.}.1X}.}..X}.}.}.}.}.}.}.}.}.}.}.}.}.}.}.}.}.}.}.}.}.}.}.}.}.}.}.}.}.}.}.}.].}.'.}.'.}.'.}.'.[.'.}.'.'.'.'.'.'.'.'.'.'.'.",
"}.}.[.}.}.}.}.}.}.}.}.}.}.}.}.}.}.}. X}.}.}.}.}.}.}.}.}.}.}. X}.2X}.2X}.}.}.}.}.}.}.}.}.}.}.}.}.}.}.}.}.}.}.}.}.}.}.}.}.}.}.].}.}.}.].}.}.}.'.}.[.'.'.}.'.'.'.'.'.].'.'.'.'.",
"}.[.}.}.}.}.}.}.}.}.}.}.}.}.}.}.}.}.}.}..X}.}.}.}.1X}.}.}.}.}.}.}.}.}.}.}.}.2X}.}.}.}.}.}.}.}.}.}.}.}.}.}.}.}.}.}.}.}.}.}.}.}.}.'.}.}.[.'.'.}.'.[.}.'.'.}.'.}.'.}.'.'.'.'.'.",
"}.[.[.}.}.}.}.}.}.}.}.}.}.}.1X}.}.}.}.}.}.}.}. X}.}.}.}.}.}.}.}.}.}.}.}.}.}.}.}.}.2X}.}.}.2X}.}.}.}.}.}.}.}.}.}.}.].}.}.}.}.].}.}.}.'.}.}.'.'.}.'.}.}.'.'.'.}.'.'.'.'.'.'.'.",
"[.}.[._.XX_._._._._._._.|._.`.`.Y.T.T.R.R.`.U.U.K.5.K.~.7.5.5.L.}.}.}.}.}.}.}.}.}.}.}.}.}.}.}.}.}.}.}.}.}.}.}.}.}.}.}.}.].}.].}.'.}.}.}.].}.}.'.}.'.}.'.}.'.'.'.'.'.'.'.'.'.",
"}.L.9.z.f.f.q.q.2.3.3.3.0.0.<.<.;.;.;.=.=.=.*.*.*.| |  .} } } ] K.}.}.}.}.}.}.}.1X}.}.}.}.}.}.}.}.}.}.}.}.}.}.}.}.}.}.}.[.[.}.}.[.}.[.[.}.[.[.}.'.[.'.[.'.[.'.[.].'.'.'.'.'.",
"[.I.{ s.h.s.s.q.2.*.=.=.=. .=.} | *.} r | ;.;.=.=.=.=.*.| |  .} [ K.}.}.}..X}.}.}.}.}.}.1X}.}.}.}.}.}.}.}.}.}.}.}.}.}.}.}.}.}.[.}.[.}.[.[.}.'.}.}.'.}.'.[.[.].'.'.].'.'.H.'.",
"}.[.J.X.d.d.s.q.p.;.r r e r } _ _ ' } r  .;.-.=.=.=.=.=.=.| |  .} [ L.}.}.}. X}.}.}.}.}.}.}.}.}.}.}.}.}.}.}.}.}.}.}.}.}.}.}.}.[.[.}.}.[.[.}.'.[.}.'.'.].'.'.'.'.].'.'.'.].'.",
"}.[.[.5.o.d.d.s.p.t.,.} ] *.*.' ]  .0 0 ] 0 0 9 9 r =.=.=.=.| |  .X...I.}.1X}.}.}.}.}.}.}.}.}.}.}.}.}.}.}.}.}.}.}.}.}.[.[.[.}.}.}.[.}.[.}.'.}.'.'.}.].].}.].'.'.'.'.'.'.'.'.",
"6.7.7...} 1.d.d.s.t.u.;.] ] *.] ] *.} } | r } } } } } ' ] _ 0 |  . .} [ K.}.}. X}.}.}.}.{.{.{.{.}.}.(.).~.~.~.D.A.A.A.I.}.[.}.[.[.[.}.}.'.}.].'.].}.].].].].}.'.].'.'.'.'.'.",
"|  . .|  . .3.j.d.s.i.y.-.' ]  .e e r 0 ' ' 9 ] r e ' } | ] ] =.=.;.*.*. .P.E.E.Y.E.6.6.4. .4...) I.{ { ` _ _ r r e e V '.}.[.}.}.[.[.[.}.'.}.}.[.'.].].}.].'.'.'.'.'.'.'.'.",
"] ] ' ] e '  .h.d.d.p.t.3.-.} ;.*.*.=.| } *.} } ] 2.2.2.2.3.3.1.<.<.<.:.;.;.*.*.*.*.*.*. . .} } 5.[ ] ] ] ' ] ' ' _ M A !.}.}.}.}.[.}.}.].}.'.[.[.}.'.].'.].'.].'.'.'.'.'./.",
"r ' ' e ] r e | d.j.s.p.p.2.*.e ' e | r 9 ' r ' *.j.a.3.<.<.;.;.;.;.>.=.>.*.*.*.*.*. . . .}  . ...[ [ [ [ ] ] ' ] ' ' e D.[.}.[.[.}.'.'.}.'.}.[.[.'.'.].'.].].'.'.'.'.'.'.'.",
") _ _ } ' q 8 5 *.j.g.s.p.2.2.;.-.] *.| =.] ' r 0 p.h.3.;.;.;.;.=.=.=.=.*.| =.}  . . .} }  . . . .} } } } } ] ] ' ] ' e Q }.}.[.}.].}.}.].[.}.'.].].].].].'.].'.'.'.].'.'.].",
"} | _ 8.>X>X$XL.B =.j.d.s.p.y.t.} 0 r e } | ] ] ] s.d.3.<.;.;.;.' 0 ' _ r 0 ] 2 2 0 ' , 0 } | | | |  . .} } } ] ] ' ' r R }.[.}.].}.[.].'.}.[.[.].].].].].].'.].'.'.].].H.].",
"a.a.O.7X0X9X9X8X#XZ 1.c.d.p.i.3.2.1.=. . .} e [ ' *.d.3.<.;.;.;.} 1 2 1 2 0 ] e e r } _ r  . . . . . .} } } } ] ] ] ' r C '.}.[.}.].}.}.[.}.'.'.].].].].].].'.'.'.'.'.H.H.}.",
"x.a.a.a.Q.>X8X0X8XJ.Z q.j.d.p.2.2.3.] e ' ' ' [ =.:.k.3.;.;.;.;.=.}  .| *.*.*.}  .r ' } ] ' r r 0 '  .}  .} } ] ] ' ' r V ^.}.[.}.].].].}.'.'.}.}.].].].].].].'.'.'.'.'.}.H.",
"a.%X%Xk.c.a.w.Q.+XR n ' a.j.s.a.2.2.1.0.r.w.e.r.e.e.k.q.1.;.@.^ =.e r ' ' 9 0 2 ' 2 , r 1 9 , 9 1 e } } } } ] ] ] ' ' r e G.}.[.}.].].].].].].].].].].].'.].'.'.].}.'.'.].].",
" XXXQ.*X%Xv.v.k.d.i.a.*.*.g.j.s.p. .r.qX5X+X+XoX+XW.z.s.1.;.&.~ -.' 2 0 ] 0 0 e } ' r } '  .' } } ] ] } ] _ r [ ] ] ] _ e C.}.[.].}.].}.}.}.].}.].].].].].'.'.'.].Z.'.'.H.}.",
"H.}.}.H.XX$X*X=X-Xx.0.9.O.9.s.d.s.} E.0X0X3XOXoXoXoXz.h.1.:.-.@.-.| | *.=.| ] ] ' } _ r e ] e 9 2 r 2 ) 1 , 9 [ ] ' ] ' r ! [.[.].].].].].].].].].].].].'.].'.'.].].'.'.].].",
"1XH.}.}.}.{.{. X$XQ.P.R.(._.r.d.d.p. .>X9X0X#XoXoXoX*Xd.1.:.;.&.&.] 0 e ] 0 2 e 2 1 9 0 2 0 e 9 2 ' r r ' ' ' } ] ] ' ' r V '.}.}.].}.].}.].].].].].].].'.'.'.'.'.'.'.'.'.H.",
"[.].].].[.[.[.}.}.].}.}.}.}._.e.s.h.2.+.5X9X0X+XH.) 6.g.3.;.-.^ ^ *.e 0 ' e r ] ] ] }  . .} ' [ e ' ' ' e _ 2 9 ' ] ' ' ' N ).(./.[.).).~.~.~.!.I.A.C.C.A.E ` ! T v B T H.}.",
"].].}.}.[.}.[.[.[.}.].].].}.].`.9.s.s.2...4X8XQ F v ..c.3.<.;.=.;.=.*.=.=.*.*. .} } =.o.[ r e r } ' [  .' } |  .<.;.;.=.;.=.9.9.>.=.4.o. .X.+.[ [ ] ] { e ) ` ` r r e N H.H.",
"].}.].].}.].}.[.}.].].}.}.}.}.].R.>.a.a.1.7.L.f s : w d.2.<.;.;.;.;.e e 0 0 ] 2 8 w.x.z.g.h.s.s.h.h.s.2.2.3.3.3.<.<.;.;.;.=.=.*.*.| | |  . . .} } } [ ] ] ] ] ] _ _ _ N H.}.",
"].].].}.].].[.}.].}.}.].}.].}.[.[.Y.;.p.2.<.' [ *.*.<.d.2.<.;.=.=.;.e 2 e e  .] | x.q.3.1.1.1.1.1.<.:.:.<.;.=.;.=.-.=.=.=.*.*.| | | |  . .} } } [ [ } ] ] ] ] ] ] _ _ N H.H.",
"].].[.[.[.[.[.[.[.].}.[.].}.[.}.[.{.Y.>.a.2.3.3.3.1.1.a.a.<.;.;.;.=.=.*.} ] |  .=.k.p.3.<.<.;.;.;.;.;.=.;.=.=.=.=.*.=.*.*.| o.| | | | | } | } } } } } } ] ] ] ] ] ' r R }.}.",
"].[.[.].].].[.[.[.}.].}.}.].}.[.}.[.[.6.9.a.2.3.0.<.9.0.a.1.;.=.@.#.| e 9 , 2 0 ;.k.a.1.<.;.;.;.| ] *.*.| | ' *.] 0 r ' } r r ' =.| | | | | | |  . . .} ] ] ] ] ' ' r R ].H.",
"].H.].}.].].[.}.}.].[.}.}.}.].].[.}.}.{.6.>.9.8.E.P.Y.E.a.1.<.=.) ~ | 9 e r r ] -.j.2.3.:.;.:.;.} 1 9 2 2 1 e ] 2 9 1 e ] 2 9 _ | *.=.| | | | }  . . .} } ] ] ] ] _ M T '.'.",
"b.b.b.b.b.b.P P U P L L U P W b.b.U U n.E T ! m.B.b.Y ! 1.3.;.;.=.@.-.=.=. .} } } d.2.3.<.;.:.:.@._ ' r ] ' } *.}  .[  .*.| | | | | | } | | | |  . . .} ] ] ] ] ] ' m L B.M.",
"d G D l j j k l l k z D D z k z G z l z D H H H x x z v ;.1.<.=.-.;.=.r 9 9 , 1 e j.a.3.<.;.$.;.| ] *.| =. .} ] r ] 9 e r ' 9 9 9 9 2 1 r  .| |  . .} } ] ] ] ] ' ' e h l l ",
"S F P J H z k a p d z D z k l l l z z j p i j j k x D x X.3.;.;.-.=.;.' 0 _ _ ' *.j.2.1.1.#.( #.] 2 2 0 ] 2 1 2 9 [ 2 9 0 r 0 e 2 e r r '  .| | | } } } } } ] ] ] _ r g D D ",
"k z H D z l l l k j j z H H l k k l k i i j d p j x x l ` 1.<.;.=.=.=.=.=.*. .+.;.j.2.3.<.-.&.,.=.] ] ] | } } } } =.| | } ]  .*.]  .]  .r ] ] r r 0 ' } ] ] ] ] ] _ q f k D ",
"S S H H J J J J H z j z z S H J D a i a S J H S x x x k V <.<.;.;.=.=.*.*. ._ ) _ c.2.3.:.;.$.;.} ] | | *.] e ' e e e ' 2 2 e ' 9 2 2 ' 9 9 r 1 9 1 _ } } ] ] ] ' r e c l l ",
"j z D z x z l D H k j j k z z i t = t u j j k k k l D J B =.<.;.=.e 0 7 7 h v R 6.c.a.1.<.$.( $.} 9 9 0 e 1 , ' 0 9 e ] ' 0 ' } ' 0 r  .] } } } } '  .} ] ] ] ] ' _ q f a d ",
"z k j j k j p p i k z k u $ X X # % * # o X . X X & a k v  .<.;.] V +X+XU.T.U.K.Y.a.a.3.1.;.&.:.=. . .| *.|  .=.*.| =.=.@.} ] r ] ' e r ' ] 0 0 r , 2 ] } ] ] ] ' _ q c D z ",
"U P P J H z j k z l i = % $ $ * = % $ $ % # o o # % * % - _ <.;.} ` 6X2XK.K.K.K.P.g.a.0.1.:.<.<. . .| } ] *.] e e e ' 9 2 2 2 2 1 2 , 2 2 r 0 0 ] 9 0 } ] ] ] ] ' _ q x x x ",
"D J P W I H p % # # o o # $ * = * % o o X X # % & & $ o # q :.;.*.V 6X3XU.K.K.K.P.d.a.a.0.<.1.1.' 1 0 2 e } e 2 0 e ' r r ' ] ' ] ] } }  .|  .}  .} ] ] } ] ] ] ' r w K D H ",
"L H j y = % % t t % o # & y u y y t = & = = = t y u u = % 7 =.:.=.b 3X4XY.K.K.K.P.l.f.q.0.<.1.1.=.| } r *.;.=. .|  . .*. . .'  .' r } r e ] 0 9 2 1 2 r ] } ] ] _ r w x J I ",
"z u t * $ $ & t t t % # % = y y & # # o $ & & & & = y y t 3 | <.>.m @X4XT.K.K.K.P.l.f.q.0.,.,.1.-.} r 0 _ _ =.0 0 9 1 e 2 } 9 r 0 9 ' 9 0 ] 0 e r r _ ] } ] ] ] ' r 6 l D D ",
"# = t y t & t y t = = & & * * * $ & $ & & & & & % & = = t : [ ;.;.M W.6X+XK.A.L.5.l.l.f.0.y.( 1.' 9 9 9 9 q  .' r ) e _ ] *. .| | | =.| | | | |  . . .} ] ] ] ' ' r 4 % % & ",
"% & & & $ o @ # # % = = = & = = y y & & $ # # o o # o o . ; M :.=.] L.4XK.Q B v h z.l.f.0.,.y.1.=.=.*.*.;.=.| | | }  ._ ] ' ' r _ _ | | @.| | | |  .} } } ] } ] _ e < o o # ",
"% # o $ $ # # o o $ = y u u y y t y y y y t & & & & & & $ & q ;.:.| h v ; ;     2 z.x.f.q.0.0.1.| [ ] r e e 9 0 ] 2 2 0 r 2 2 2 9 0  .o.@.| |  . . .} ] ] } ] ] _ e < $ $ t ",
"X $ & y u y y t t t t y y t % $ $ & = = t t & t = = & & = u n =.;.=.q q 0 8 9 9 e &Xx.l.q.w.q.1.r 0 r 0 0 e r r *._ ]  . . .| | | | | |  . . .} } } } } ] ] ] ' ' 0 < % a k ",
". X # % = t t t y y & # @ # % = & & & $ $ $ # $ = u u t & = 7 >.;.=.;.=.*.[ ) ]  .=X%Xl.q.q.q.1.;.;.:.;.;.;.=.=.=.=.*.=.*.*.*.*.o.| |  . . .}  .} } } ] } } ] ] r 0 : D I Y ",
"o X X # $ $ % t u u y % @ X $ * & $ # # $ & & & & = t t y u 3 O.;.;.;.=.*.| +.} X.;X-Xz.f.q.0.1.1.<.;.=.*.o.[ ] _ r e q 2  .*.*.| | |  . . . .} } ] ] } ] ] ] ' r 0 c D z x ",
"t $ # # = = = = t t & % $ o $ % & & & t t t t t t a a a u = - [ ;.=.*.+.` n g f h ;X;Xx.>.` M N n b n v C B Q J.A.Y.T.R.4  .@.| | | | | |  . .} } [ } ] ] } ] ' r 0 K Y I I ",
"U D k a u u = = % $ # X . . . . @ $ & t t t t & t t s a a t u b C n f u & & & t h ,X:Xx.b R.OXOX#X#X#X3X3X#X#X@X@X$XoXT.- [ *.*.*.| | |  . .}  .} } } } [ ] ] ' M 9 T E Y I ",
"Y E M.M.E J k a a u t $ # o # & t & % $ @ @ . . . # & t u a s p p p t & $ & t & g ,X:X&XC #X3X@X$X+XoXoXT.T.T.U.Y.U.K.L.+ r *.| | | |  . . .} } } } } ] } ] ] ' e 8 K P P J ",
"Z.F.!.).).G.m.E E n.E J z a p p p t t & $ # @ # % t u p a a a y t $ @ $ & & $ $ 3 ;X:X%XC #X>XoXoXW.T.T.T.T.T.U.Y.U.U.L.+ e  .*.*.| | | |  . .} } } } ] } ] ] ' e 8 I M.V.N.",
"b.M.Z.!.!.F.M.B.n.n.M.M.b.U P z y $ @ # & y u a J N.m.k a p u y & $ $ $ & & & $ 3 ,X<X%XC #X#XOXoXoXT.T.T.T.T.U.T.U.R.Q + e ] | *.| | |  . . .} } } } ] [ [ ] ' e 8 W I I I ",
"Z.V.N.V.M.n.E E b.b.P F S S H F J L U b.Y J D M.!.(./.S.D t & & $ # @ $ & y a p g ,X<X=XC #X#XOXoXoXoXT.T.T.T.U.U.U.U.Q   e ' *.*.| |  . . . .} } ] } [ [ ] ] r e 7 c j s u ",
"F.D.Z.V.m.E E M.!.^.~.Z.V.m.n.b.b.n.V.S.F.F.S.G.(.|.|.{.G.J y & & & & & t u u t 7 ;X<X=X) 2X#XOXOXoXoXT.T.T.T.K.K.J.Q v   r ' =.*.| | |  . .} } } ] ' ] ' ' _ r e < = u y = ",
"M.N.N.N.M.V.F.^.(.|.|.].Z.m.U F S z G L E N.S.!.{.|.{.!.S.b.S & @ # & t a a y & 3 =X<X=XV OXoXK.J.! T T f g 3 > 4 + < , 2 e ' |  . .} } [ ] ] ' ' ' r r e e 0 9 5 > & = = = ",
"V.Z.S.Z.Z.Z.S.S.Z.N.M.B.b.Y U I F G F U Z.H.H.H.H.F.Z.M.B.b.I G y $ = s y y y a h &X:X%Xb h 7 < 8 8 9 q 0 r e r r r r r e e _ } [ ] ' ' _ _ e q 9 5 7 4 < : - - : s a a a a ",
"(.(.^.F.N.M.m.b.b.B.M.S.S.S.F.S.N.M.m.M.M.M.M.b.L F F F U Y b.E b.L d d H Y M.m.n &X;X%Xa.a.9.X.[ ] { { ' _ r _ r r e e e e A e q 8 6 7 3 3 - * ; $ % & % % % = u s s = t y ",
"F.!./.).{.|.{.(.H.H.H.H.F.F.H.H.!.H.H.G.H.Z.B.b.Y L F L U E m.N.S.F.S.N.F.F.S.S.B z.;X%X&Xl.a.*.[ [ ` _ _ e A n n h h g f s : & & & t a s y t & & # @ @ X X o % t a a y & & ",
"M.V.Z.!.{..X1X1X1X{./.S.Z.M.M.Z.S.S.H.!.'.H.H.H.H.F.H.F.G.H.F.S.Z.N.M.N.N.F.G.H.R w.r.9.6.` ` b h h g f d a a a a a a s y t & & & & & & & & & & & = t & = = & = t y u i u a ",
"S.Z.F.H.{.{..X{./.G.S.M.m.Z.S.H.!.H.H.F.S.M.B.N.F.H.(.(.{.(.!.H.H.H.H.H.G.G.H.G.I 3 s - = = t a d d d a a a s a s a s y = * = y y y t & % % $ $ & & t y u u a j H I B.M.V.V.",
"/.(.(.^.G.F.Z.M.B.Y U b.M.F.[.1X1X.X/.S.B.Y b.b.M.Z.S.S.S.M.b.M.F.(.|.}.(.G.N.Y s $ @ @ @ # % % & & t t = y s a j k d d d d d d d a d a d k l k k z H I I Y M.F.~.{._.{.).~.",
"1X1X{.H.G.S.F.G.F.Z.m.m.M.F.|.1X1X XG.M.Y I I I U M.S.H.S.b.I L b.S.H./.H.Z.Y d @ @ @ @ # % % @ # # @ @ $ & y a a d d d k x F Y Y M.Z.M.F.H.!.H.G.S.S.V.N.N.S.H./.(.(./.!.G.",
"1X1X X(.H.G.!./.(./.G.S.S.H.{..X.X(.H.Z.M.M.b.B.M.M.Z.Z.b.I G G G I Y b.b.b.J y a d D D d t t s a a a t t s d D W I W I E S.H.(.{.(.F.M.M.M.G.(.{.{._.{.{.(././.H.G.S.S.S.S.",
"2X1X1X/.Z.M.Z.G.H./.H.H.H.H././.H.S.S.S.F.H.H.(.(.(.H.F.m.b.L F F F F L U M.B.M.H.{.(.Y F L I b.N.N.Z.b.U L I b.Z.S.S.Z.N.Z.Z.S.S.S.m.Y J J U M.G./.(.(./.G.N.m.E E E E B.m."
};
